<svg viewBox="0 0 200 200" xmlns="http://www.w3.org/2000/svg" fill-rule="evenodd" clip-rule="evenodd" stroke-linejoin="round" stroke-miterlimit="2"><path fill="orange" d="M0 0h200v200H0z"/><path d="M32.452 109.961v2.431c.143 7.865 1.001 13.442 2.574 16.731 1.573 3.289 5.005 4.862 10.01 4.862 5.148 0 8.437-1.716 10.153-5.291 1.001-2.145 1.43-5.577 1.43-10.582V46.04h21.45v71.643c0 8.723-1.43 15.73-4.433 20.878-5.148 8.58-14.443 13.013-27.742 13.013-13.442 0-22.308-3.575-26.884-10.582-4.576-7.007-6.864-16.588-6.864-28.6v-2.431h20.306zM92.2548 149V46.04h21.307v39.325h40.183V46.04h21.45V149h-21.45v-45.903h-40.183V149h-21.307z" fill-rule="nonzero"/></svg>
